<svg xmlns="http://www.w3.org/2000/svg" width="1200" height="800" viewBox="0 0 1200 800" role="img" aria-label="Bunk bed room">
  <defs>
    <linearGradient id="bg3" x1="0" y1="0" x2="1" y2="1">
      <stop offset="0%" stop-color="#f8fafc"/>
      <stop offset="100%" stop-color="#dcfce7"/>
    </linearGradient>
  </defs>
  <rect width="1200" height="800" fill="url(#bg3)"/>
  <rect x="180" y="220" width="680" height="24" fill="#1e293b"/>
  <rect x="180" y="450" width="680" height="24" fill="#1e293b"/>
  <rect x="180" y="250" width="680" height="120" rx="14" fill="#2563eb"/>
  <rect x="180" y="480" width="680" height="120" rx="14" fill="#10b981"/>
  <rect x="170" y="190" width="20" height="430" fill="#334155"/>
  <rect x="850" y="190" width="20" height="430" fill="#334155"/>
  <rect x="920" y="240" width="90" height="360" rx="12" fill="#334155"/>
  <rect x="950" y="270" width="30" height="24" rx="6" fill="#94a3b8"/>
  <rect x="950" y="320" width="30" height="24" rx="6" fill="#94a3b8"/>
  <rect x="950" y="370" width="30" height="24" rx="6" fill="#94a3b8"/>
  <rect x="950" y="420" width="30" height="24" rx="6" fill="#94a3b8"/>
  <rect x="950" y="470" width="30" height="24" rx="6" fill="#94a3b8"/>
  <text x="90" y="110" font-family="Inter, Arial, sans-serif" font-size="48" font-weight="700" fill="#0f172a">UK Hall Room</text>
  <text x="90" y="165" font-family="Inter, Arial, sans-serif" font-size="34" font-weight="600" fill="#334155">Bunk Bed Layout</text>
</svg>
